<svg xmlns="http://www.w3.org/2000/svg" xmlns:xlink="http://www.w3.org/1999/xlink" version="1.1" x="0px" y="0px" viewBox="0 0 100 100" enable-background="new 0 0 100 100" xml:space="preserve"><rect x="31.094" y="48.087" transform="matrix(0.7071 0.7071 -0.7071 0.7071 49.9978 -20.7098)" width="37.812" height="3.83"></rect><rect x="28.602" y="53.781" transform="matrix(0.7071 0.7071 -0.7071 0.7071 52.1133 -14.4258)" width="29.736" height="3.829"></rect><rect x="40.632" y="41.367" transform="matrix(0.7071 0.7071 -0.7071 0.7071 46.8597 -26.5682)" width="29.738" height="3.83"></rect><rect x="57.792" y="21.39" transform="matrix(0.7071 0.7071 -0.7071 0.7071 38.9406 -47.4061)" width="37.81" height="3.829"></rect><rect x="55.299" y="27.082" transform="matrix(0.7071 0.7071 -0.7071 0.7071 41.0578 -41.1232)" width="29.735" height="3.829"></rect><rect x="4.399" y="74.783" transform="matrix(0.7071 0.7071 -0.7071 0.7071 61.0611 5.9876)" width="37.808" height="3.829"></rect><rect x="14.13" y="68.254" transform="matrix(0.7072 0.707 -0.707 0.7072 58.1015 0.0445)" width="29.735" height="3.83"></rect><path d="M79.791,41.847c-8.127,0-16.603-3.179-17.146-3.385c-0.509-0.195-0.911-0.597-1.105-1.107  c-0.32-0.837-7.732-20.605,0.435-28.772c1.854-1.853,4.434-3.05,7.667-3.559c1.044-0.167,2.024,0.549,2.188,1.594  c0.165,1.045-0.55,2.025-1.594,2.189c-2.417,0.38-4.285,1.215-5.554,2.483c-5.075,5.075-1.852,18.255,0.138,23.888  c5.637,1.985,18.823,5.203,23.891,0.138c1.267-1.268,2.102-3.138,2.481-5.56c0.163-1.045,1.146-1.756,2.188-1.596  c1.045,0.164,1.759,1.144,1.596,2.188c-0.507,3.24-1.704,5.822-3.558,7.675C88.539,40.904,84.216,41.847,79.791,41.847z"></path><path d="M53.156,68.564c-8.181,0-16.844-3.269-17.208-3.408l-0.802-0.305l-0.306-0.802c-0.318-0.837-7.728-20.604,0.436-28.77  c2.55-2.55,6.442-3.842,11.568-3.842c8.181,0,16.842,3.267,17.206,3.406l0.802,0.306l0.306,0.801  c0.318,0.837,7.728,20.605-0.435,28.772C62.173,67.272,58.282,68.564,53.156,68.564z M38.12,61.866  c2.271,0.777,8.933,2.868,15.036,2.868c4.073,0,7.054-0.915,8.858-2.719c5.069-5.072,1.854-18.241-0.135-23.88  c-2.269-0.778-8.931-2.868-15.035-2.868c-4.074,0-7.055,0.915-8.86,2.721C32.924,43.049,36.136,56.224,38.12,61.866z"></path><path d="M30.051,95c-0.927,0-1.741-0.674-1.889-1.617c-0.164-1.045,0.55-2.025,1.595-2.188c2.423-0.381,4.293-1.216,5.559-2.481  c5.076-5.077,1.853-18.257-0.136-23.891c-5.637-1.984-18.822-5.203-23.89-0.139c-1.269,1.268-2.103,3.137-2.481,5.554  C8.646,71.283,7.656,72,6.622,71.833c-1.046-0.163-1.76-1.143-1.597-2.187c0.506-3.237,1.703-5.818,3.558-7.672  c8.168-8.163,27.934-0.755,28.771-0.434c0.51,0.193,0.911,0.596,1.105,1.105c0.32,0.838,7.732,20.604-0.437,28.772  c-1.85,1.853-4.431,3.05-7.672,3.558C30.25,94.993,30.15,95,30.051,95z"></path></svg>