<svg xmlns="http://www.w3.org/2000/svg" xmlns:xlink="http://www.w3.org/1999/xlink" version="1.1" x="0px" y="0px" viewBox="0 0 50.605 50.8" style="enable-background:new 0 0 50.605 50.8;" xml:space="preserve"><g><path d="M45.006,18.3L45.006,18.3c-1-1.8-2.3-3.8-4.101-5.9l0,0c-0.899-1-1.8-1.9-2.7-2.6c-0.8-0.7-1.6-1.3-2.4-1.8   c0-0.2,0.1-0.3,0-0.5c-0.3-2-1.3-3.7-3.2-5.2l0,0c-2-1.5-4.5-2.3-7.4-2.3s-5.4,0.8-7.4,2.3c-2,1.6-3,3.4-3.1,5.5c0,0,0,0.1,0,0.2   c-0.8,0.5-1.6,1.2-2.4,1.8c-1,0.7-1.9,1.6-2.7,2.6c-1.9,2.1-3.3,4.1-4.1,6v-0.1c-1,1.7-1.5,3.6-1.9,5.6c-0.1,0.3-0.1,0.6-0.1,0.9   c-2.4,0.1-3.5,1.4-3.5,3.7v5.7c-0.101,2.3,1.1,3.5,3.3,3.8l-0.2,9c0,1.1,0.2,1.9,0.7,2.4l0,0c0.7,0.9,1.7,1.4,3.1,1.4h36.601   c2.5,0,3.8-1.3,3.8-3.8v-6.3c0-0.9,0-1.8,0-2.7l0,0c2.2-0.1,3.3-1.4,3.3-3.8v-5.7c0-2.4-1.1-3.6-3.5-3.7h-0.1   c0-0.3-0.101-0.6-0.101-0.9v-0.1l-0.1-0.1C46.506,21.8,45.905,19.9,45.006,18.3z M37.306,10.9c0.8,0.8,1.6,1.6,2.5,2.5   c1.7,2,3,3.9,3.8,5.6c0.7,1.3,1.2,2.7,1.6,4.2c-1.8-0.3-3.8-1-5.9-2.3c-1.5-1-3.8-2.6-6.5-4.9c-2.7-2.1-4.7-4.5-6-7.2   c-0.1-0.1-0.2-0.3-0.4-0.3c-0.2-0.1-0.399-0.1-0.5,0c-0.3,0-0.399,0.2-0.5,0.3c-1.3,2.6-3.3,5-6,7.2c-2.8,2.3-5.1,4-6.8,5   c-2.7,1.5-5.1,2.3-7.3,2.2c0.3-1.5,0.8-2.8,1.5-4.2c0.9-1.7,2.1-3.6,3.9-5.6c0.8-0.9,1.7-1.7,2.6-2.5c3.1-2.7,6.8-4.1,10.8-4.4h0.1   c0.4,0,0.7,0,1,0c0.9,0,1.9,0,2.7,0.2C31.405,7.2,34.506,8.6,37.306,10.9z M38.506,22.2L38.506,22.2c2.5,1.5,4.8,2.3,7,2.5   c0,0.2,0,0.5,0,0.7c0,0,0,0.1,0.1,0.1c0,0.3,0.1,4,0.2,11.1c0,1.4,0,2.8,0,4.1V47c0,1.5-0.8,2.3-2.3,2.3H6.905   c-0.899,0-1.5-0.3-1.899-0.8c-0.3-0.3-0.4-0.8-0.4-1.4l0.3-21.7c0.101-0.2,0.101-0.5,0.101-0.7c0.1,0,0.2,0,0.3,0   c2.5,0.1,5.1-0.7,8-2.3c1.8-1.1,4.1-2.8,7.1-5.2c2.4-2,4.3-4.2,5.7-6.4c1.5,2.3,3.3,4.5,5.7,6.4   C34.605,19.5,36.905,21.2,38.506,22.2z M47.105,26.3c1.4,0.1,2,0.8,2,2.2v5.7c0,1.4-0.6,2.2-1.8,2.3   C47.206,31.4,47.206,28,47.105,26.3z M31.706,3.5c1.3,1.1,2.2,2.3,2.5,3.6c-1.9-0.9-3.9-1.6-6.1-1.9c-1-0.2-1.9-0.2-2.9-0.2   c-0.4,0-0.8,0-1.1,0c-2.8,0.2-5.5,0.8-7.8,2.1c0.3-1.3,1.1-2.6,2.4-3.6h-0.1c1.8-1.3,4-2,6.6-2S29.905,2.2,31.706,3.5z M1.506,28.5   c0-1.3,0.6-2.1,1.899-2.1l-0.1,10c-1.2-0.2-1.8-0.9-1.8-2.2V28.5z"></path><path d="M40.605,24.9c-1.5-1.5-3.2-2.2-5.2-2.2c-2.1,0-3.8,0.7-5.3,2.2l0,0c-1.2,1.1-1.8,2.5-2,4.1c-2-0.9-3.8-0.8-5.7,0.1   c-0.2-1.6-0.899-3-2.1-4.2c-1.4-1.5-3.2-2.2-5.2-2.2s-3.7,0.7-5.2,2.2h-0.1c-1.4,1.5-2.1,3.2-2.1,5.2c0,2.1,0.7,3.8,2.2,5.3   c1.5,1.4,3.2,2.1,5.2,2.1s3.8-0.7,5.2-2.1c1.3-1.4,2-2.9,2.1-4.7c0.101,0,0.2,0,0.2,0c1.8-1.1,3.6-1.1,5.4,0l0,0   c0.1,1.7,0.8,3.3,2.1,4.7c1.5,1.4,3.2,2.1,5.3,2.1c2,0,3.7-0.7,5.2-2.1c1.4-1.5,2.2-3.2,2.2-5.3   C42.806,28.1,42.006,26.4,40.605,24.9z M39.405,26.2h-0.1c1.1,1,1.7,2.3,1.7,3.9c0,1.6-0.601,2.9-1.601,4c-1.1,1-2.5,1.6-4,1.6   c-1.6,0-2.899-0.6-4-1.6c-1-1-1.5-2.2-1.6-3.6c0-0.1,0-0.3-0.2-0.5c0.2-0.1,0.2-0.3,0.2-0.4c0.1-1.4,0.6-2.5,1.6-3.4   c1.101-1.2,2.4-1.7,4-1.7C36.905,24.5,38.306,25,39.405,26.2z M11.206,26.2c1-1.2,2.4-1.7,3.9-1.7s2.8,0.5,4,1.7h-0.1   c1.1,1,1.6,2.2,1.6,3.7c0,0,0,0.1,0.1,0.1c-0.1,0.1-0.1,0.2-0.1,0.3c0,1.4-0.5,2.7-1.5,3.8c-1.2,1-2.5,1.6-4,1.6s-2.9-0.6-3.9-1.6   c-1.1-1.1-1.7-2.4-1.7-4C9.506,28.5,10.105,27.2,11.206,26.2z"></path><path d="M36.306,30.1c0-0.2-0.2-0.5-0.3-0.7c-0.2-0.2-0.5-0.2-0.7-0.2c-0.3,0-0.5,0-0.7,0.2c-0.1,0.2-0.2,0.5-0.2,0.7   c0,0.3,0.101,0.5,0.2,0.6c0.2,0.2,0.4,0.3,0.7,0.3c0.2,0,0.5-0.1,0.7-0.3C36.105,30.6,36.306,30.4,36.306,30.1z"></path><path d="M14.105,30.1c0,0.3,0.1,0.5,0.3,0.6c0.2,0.2,0.4,0.3,0.7,0.3c0.2,0,0.5-0.1,0.6-0.3c0.2-0.1,0.3-0.3,0.3-0.6   c0-0.2-0.101-0.5-0.3-0.7c-0.1-0.2-0.4-0.2-0.6-0.2c-0.3,0-0.5,0-0.7,0.2C14.206,29.6,14.105,29.9,14.105,30.1z"></path><path d="M19.706,18.8c-0.1,0.1-0.1,0.2,0,0.4c0.1,0,0.2,0.2,0.3,0.2c0.1,0,0.3,0,0.399,0c1.7-1,3.3-1.5,5-1.4   c1.5,0,3,0.5,4.601,1.4c0.1,0,0.3,0,0.399,0c0.101,0,0.2-0.2,0.3-0.2c0.1-0.2,0.1-0.3,0.1-0.4c-0.1-0.1-0.2-0.3-0.3-0.3   c-1.601-1-3.4-1.5-5.101-1.5c-1.8-0.1-3.6,0.4-5.5,1.4C19.806,18.5,19.806,18.6,19.706,18.8z"></path><path d="M22.006,20.2c-0.101,0.2-0.101,0.2,0,0.4c0.1,0.1,0.1,0.2,0.3,0.3c0.1,0,0.2,0,0.3,0c0.9-0.4,1.8-0.5,2.7-0.5   c0.9,0,1.8,0.3,2.6,0.6c0.2,0,0.2,0,0.4-0.1c0.1,0,0.3,0,0.3-0.2c0-0.2,0-0.3,0-0.4c-0.1-0.1-0.2-0.2-0.3-0.3   c-0.9-0.3-1.9-0.6-2.9-0.6s-2,0.1-3.1,0.5C22.105,20,22.105,20,22.006,20.2z"></path><path d="M17.405,43.9c-0.2-0.4-0.3-0.8-0.3-1.4c0-0.3,0-0.4-0.2-0.5c-0.1-0.2-0.3-0.3-0.5-0.3c-0.3,0-0.399,0.1-0.5,0.3   c-0.2,0.1-0.3,0.2-0.3,0.5c0,1,0.2,1.8,0.7,2.3l0,0c0.6,1,1.7,1.4,3.1,1.4h11.601c2.5,0,3.8-1.2,3.8-3.7c0-0.3,0-0.4-0.2-0.5   c-0.1-0.2-0.3-0.3-0.6-0.3c-0.101,0-0.3,0.1-0.5,0.3c-0.101,0.1-0.2,0.2-0.2,0.5c0,1.5-0.8,2.2-2.3,2.2H19.405   C18.605,44.7,17.905,44.5,17.405,43.9z"></path></g></svg>