<?xml version="1.0" encoding="UTF-8" standalone="no"?>
<svg
   xmlns:dc="http://purl.org/dc/elements/1.1/"
   xmlns:cc="http://creativecommons.org/ns#"
   xmlns:rdf="http://www.w3.org/1999/02/22-rdf-syntax-ns#"
   xmlns:svg="http://www.w3.org/2000/svg"
   xmlns="http://www.w3.org/2000/svg"
   xmlns:sodipodi="http://sodipodi.sourceforge.net/DTD/sodipodi-0.dtd"
   xmlns:inkscape="http://www.inkscape.org/namespaces/inkscape"
   version="1.1"
   x="0px"
   y="0px"
   viewBox="0 0 100 100"
   style="enable-background:new 0 0 100 100;"
   xml:space="preserve"
   id="svg4954"
   inkscape:version="0.91 r13725"
   sodipodi:docname="opinion.svg"><metadata
     id="metadata4964"><rdf:RDF><cc:Work
         rdf:about=""><dc:format>image/svg+xml</dc:format><dc:type
           rdf:resource="http://purl.org/dc/dcmitype/StillImage" /><dc:title></dc:title></cc:Work></rdf:RDF></metadata><defs
     id="defs4962" /><sodipodi:namedview
     pagecolor="#ffffff"
     bordercolor="#666666"
     borderopacity="1"
     objecttolerance="10"
     gridtolerance="10"
     guidetolerance="10"
     inkscape:pageopacity="0"
     inkscape:pageshadow="2"
     inkscape:window-width="1396"
     inkscape:window-height="816"
     id="namedview4960"
     showgrid="false"
     inkscape:zoom="6.5"
     inkscape:cx="50"
     inkscape:cy="50"
     inkscape:window-x="0"
     inkscape:window-y="0"
     inkscape:window-maximized="0"
     inkscape:current-layer="svg4954" /><path
     id="path5793"
     d="m 49.998793,17.396292 c -21.251758,0 -38.541838,17.294799 -38.541838,38.551505 0,21.257944 17.29008,38.551503 38.541838,38.551503 21.251756,0 38.544252,-17.293559 38.544252,-38.551503 0,-21.256706 -17.292497,-38.551505 -38.544252,-38.551505 z m 0,3.712313 c 19.206271,0 34.831939,15.629208 34.831939,34.839192 0,19.209985 -15.625668,34.83919 -34.831939,34.83919 -19.205036,0 -34.829525,-15.629205 -34.829525,-34.83919 0,-19.209984 15.624488,-34.839192 34.829525,-34.839192 z M 32.382221,36.813432 c -0.593728,0.05132 -1.152943,0.387473 -1.464623,0.947413 -0.498687,0.895905 -0.17444,2.026943 0.720228,2.52563 l 1.237437,0.688807 c -0.596445,0.342771 -1.150855,0.766575 -1.648306,1.264024 -0.723901,0.725139 -0.723901,1.899583 0,2.624721 0.725139,0.725139 1.902001,0.725139 2.627138,0 1.033261,-1.035736 2.53147,-1.41265 3.932249,-1.155263 l 2.873659,1.599967 c 0.283374,0.158393 0.594609,0.234437 0.901493,0.234437 0.565509,10e-7 1.120211,-0.258257 1.481543,-0.737146 0.558083,-0.739987 0.487839,-1.776766 -0.166766,-2.431371 -1.048109,-1.04811 -2.335527,-1.786859 -3.743731,-2.165516 l -5.689314,-3.168517 c -0.334573,-0.187472 -0.70477,-0.257973 -1.061007,-0.227186 z m 34.70868,0 c -0.356092,-0.03078 -0.724577,0.0397 -1.061006,0.227186 l -5.686898,3.168517 c -1.40944,0.378657 -2.698038,1.117406 -3.746148,2.165516 -0.654605,0.654605 -0.724849,1.691384 -0.166765,2.431371 0.361332,0.478889 0.916034,0.737146 1.481542,0.737146 0.306885,10e-7 0.618119,-0.07604 0.901492,-0.234437 l 2.87366,-1.599967 c 1.414392,-0.263574 2.901404,0.120762 3.934666,1.155263 0.725137,0.725139 1.899582,0.725139 2.624721,0 0.723901,-0.725138 0.723901,-1.899582 0,-2.624721 -0.49745,-0.497449 -1.050624,-0.921253 -1.648306,-1.264024 l 1.237438,-0.688807 c 0.895905,-0.498687 1.220152,-1.629725 0.720227,-2.52563 -0.311679,-0.55994 -0.871137,-0.896103 -1.464623,-0.947413 z M 49.817526,49.676017 c -8.30692,0 -15.066771,6.759794 -15.066771,15.069189 0,8.070504 6.381162,14.659527 14.358629,15.032935 0.06349,0.0053 0.119363,0.01704 0.183681,0.02176 0.330397,0.02475 0.653502,0.03626 0.973999,0.03626 3.826294,0 6.771562,-1.641474 8.693484,-3.139515 0.184202,-0.141338 0.371258,-0.278282 0.548629,-0.427786 0.318245,-0.26938 0.579528,-0.513641 0.821737,-0.74923 0.0514,-0.05021 0.106407,-0.09651 0.157097,-0.14743 0.569627,-0.56816 0.895496,-0.97575 0.949829,-1.046504 9.72e-4,-0.0013 0.01612,-0.01587 0.01692,-0.01692 0.0094,-0.01225 0.01511,-0.02629 0.02417,-0.03867 2.124865,-2.598332 3.405371,-5.914281 3.405371,-9.524886 0,-8.309395 -6.758614,-15.069189 -15.066771,-15.069189 z m 0,3.712313 c 6.261435,0 11.354459,5.095441 11.354459,11.356876 0,2.085335 -0.574361,4.034558 -1.558882,5.715899 -1.818047,-1.320649 -4.969197,-3.079094 -8.913419,-3.079094 -3.503454,0 -6.863557,1.38931 -10.001012,4.099013 -1.397593,-1.887511 -2.235604,-4.211776 -2.235604,-6.735818 0,-6.261435 5.09426,-11.356876 11.354458,-11.356876 z m 0.882158,17.708412 c 2.79347,0 5.132033,1.249364 6.535218,2.228354 -0.04008,0.03472 -0.07786,0.07219 -0.118422,0.106346 -0.276025,0.234277 -0.603201,0.481472 -0.954665,0.727477 -9.91e-4,6.95e-4 -0.0015,0.0018 -0.0025,0.0025 -1.796207,1.213997 -3.957854,1.926003 -6.281448,1.93833 -0.04662,-0.0019 -0.09083,1.71e-4 -0.13776,-0.0025 -0.09766,-6.63e-4 -0.192956,-0.01138 -0.290025,-0.0145 -3.151203,-0.259545 -4.755277,-1.54011 -5.510466,-2.470042 2.19274,-1.671778 4.462067,-2.515962 6.759988,-2.515962 z"
     style="fill:#ffffff;fill-rule:evenodd"
     inkscape:connector-curvature="0" /></svg>