<svg xmlns="http://www.w3.org/2000/svg" xmlns:xlink="http://www.w3.org/1999/xlink" version="1.1" x="0px" y="0px" viewBox="0 0 100 100" enable-background="new 0 0 100 100" xml:space="preserve">
	<g>
		<path d="M97.594,23.292c-0.418-0.551-1.1-0.845-1.778-0.783c-0.531,0.049-13.093,1.315-19.666,10.765   c-0.083,0.12-0.153,0.248-0.209,0.383l-8.384,20.436V30.251c0-0.261-0.051-0.519-0.15-0.76l-4.653-11.332   c-0.308-0.75-1.038-1.24-1.85-1.24s-1.542,0.49-1.85,1.24L54.4,29.491c-0.1,0.241-0.15,0.499-0.15,0.76v27.25H23.452l2.99-2.393   c0.475-0.379,0.751-0.954,0.751-1.562v-0.864l3.256,1.803c0.715,0.395,1.596,0.317,2.229-0.197c0.633-0.514,0.891-1.361,0.65-2.141   l-1.021-3.323l3.62,1.207c0.729,0.241,1.529,0.048,2.064-0.5s0.71-1.355,0.449-2.076l-1.081-2.998l3.638,0.943   c0.6,0.156,1.236,0.025,1.726-0.354c0.49-0.378,0.776-0.962,0.776-1.582v-7.714c0-1.104-0.896-2-2-2s-2,0.896-2,2v5.129   l-4.806-1.246c-0.72-0.187-1.48,0.04-1.98,0.589c-0.499,0.548-0.654,1.328-0.402,2.026l0.968,2.683l-3.394-1.131   c-0.713-0.236-1.494-0.057-2.03,0.467c-0.536,0.523-0.734,1.303-0.514,2.019l0.707,2.298l-1.887-1.044   c-0.62-0.343-1.374-0.331-1.984,0.027c-0.61,0.36-0.984,1.015-0.984,1.723v3.295L19.75,55.34v-2.828   c0-0.893-0.591-1.677-1.449-1.923c-1.649-0.472-2.801-1.948-2.801-3.588s1.151-3.116,2.801-3.588   c0.858-0.246,1.449-1.03,1.449-1.923v-4.822c0-0.245-0.045-0.487-0.132-0.715l-4.084-10.667c-0.297-0.773-1.039-1.285-1.868-1.285   H8c-0.896,0-1.683,0.596-1.926,1.458l-3,10.667C3.025,36.303,3,36.485,3,36.668v33.333c0,6.893,5.607,12.5,12.5,12.5h52   c6.01,0,11.04-4.264,12.23-9.926l18.138-47.359C98.115,24.571,98.012,23.843,97.594,23.292z M58.25,30.646l2.653-6.461l2.653,6.461   v26.855H58.25V30.646z M7,36.944l2.515-8.943h2.775l3.46,9.037v3.104c-2.562,1.32-4.25,3.96-4.25,6.859s1.688,5.539,4.25,6.859   v3.576C13.721,57.501,9.925,57.968,7,60.35V36.944z M67.5,78.501h-52c-4.687,0-8.5-3.812-8.5-8.5s3.813-8.5,8.5-8.5h40.75h9.307   h1.774c1.115,0.203,8.814,1.922,8.475,10.291C74.98,75.622,71.571,78.501,67.5,78.501z M78.614,64.306   c-1.656-3.217-4.663-5.622-8.271-6.466l9.213-22.456c3.624-5.068,9.581-7.306,13.295-8.251L78.614,64.306z">
		</path>
		<path d="M80.275,47.552c-1.03-0.393-2.188,0.121-2.583,1.154l-2.434,6.364c-0.395,1.031,0.122,2.188,1.153,2.582   c0.235,0.09,0.477,0.133,0.715,0.133c0.805,0,1.563-0.49,1.868-1.287l2.434-6.363C81.823,49.103,81.307,47.946,80.275,47.552z">
		</path>
		<path d="M63.854,68.333h-1.701v-1.701c0-1.104-0.896-2-2-2s-2,0.896-2,2v1.701h-1.702c-1.104,0-2,0.896-2,2   s0.896,2,2,2h1.702v1.702c0,1.104,0.896,2,2,2s2-0.896,2-2v-1.702h1.701c1.104,0,2-0.896,2-2S64.959,68.333,63.854,68.333z">
		</path>
	</g>
</svg>
