<svg 
  xmlns="http://www.w3.org/2000/svg" 
  xmlns:xlink="http://www.w3.org/1999/xlink" version="1.1" x="0px" y="0px" viewBox="0 0 100 100" enable-background="new 0 0 100 100" xml:space="preserve">
  <path d="M93.018,6.982c-4.868-4.87-16.123-0.568-28.962,8.261C59.712,13.48,54.969,12.5,50,12.5c-20.678,0-37.5,16.822-37.5,37.5  c0,4.969,0.98,9.712,2.743,14.056C6.415,76.894,2.113,88.148,6.982,93.018c1.394,1.395,3.312,2.037,5.64,2.037  c5.803,0,14.159-3.999,23.321-10.298C40.288,86.52,45.03,87.5,50,87.5c20.678,0,37.5-16.822,37.5-37.5  c0-4.969-0.98-9.712-2.743-14.056C93.584,23.106,97.887,11.852,93.018,6.982z M63.597,45.655c-1.358-0.269-2.671,0.608-2.942,1.961  l-2.5,12.5c0,0.002,0,0.004,0,0.005c-0.036,0.184-0.046,0.371-0.041,0.557c0.002,0.057,0.011,0.111,0.016,0.168  c0.013,0.131,0.034,0.26,0.068,0.389c0.016,0.06,0.032,0.118,0.052,0.176c0.043,0.127,0.099,0.249,0.163,0.368  c0.026,0.048,0.047,0.097,0.075,0.143c0.099,0.159,0.213,0.312,0.351,0.451c0.119,0.119,0.249,0.224,0.386,0.316  c0.097,0.065,0.201,0.112,0.304,0.162c0.043,0.021,0.083,0.049,0.128,0.067c0.115,0.047,0.234,0.077,0.353,0.107  c0.038,0.009,0.074,0.026,0.113,0.033c0.16,0.031,0.321,0.048,0.483,0.048c0.162,0,0.324-0.016,0.484-0.048  c0.002,0,0.004,0,0.006-0.001l12.5-2.5c1.354-0.271,2.232-1.588,1.961-2.942c-0.271-1.354-1.585-2.229-2.942-1.961l-4.658,0.932  c4.835-5.19,9.337-10.518,13.233-15.697C82.037,43.782,82.5,46.837,82.5,50c0,17.92-14.58,32.5-32.5,32.5  c-12.67,0-23.662-7.292-29.02-17.896c3.792-5.283,8.553-11.138,14.286-17.319l-0.824,4.118c-0.271,1.354,0.607,2.671,1.961,2.942  c0.166,0.033,0.331,0.049,0.493,0.049c1.167,0,2.211-0.822,2.449-2.01l2.5-12.5c0-0.002,0-0.004,0-0.005  c0.036-0.184,0.046-0.371,0.041-0.557c-0.002-0.057-0.011-0.111-0.016-0.168c-0.013-0.131-0.034-0.26-0.068-0.389  c-0.016-0.06-0.032-0.118-0.052-0.176c-0.043-0.127-0.099-0.249-0.163-0.368c-0.026-0.048-0.047-0.097-0.075-0.143  c-0.099-0.159-0.213-0.312-0.351-0.451c-0.139-0.139-0.292-0.253-0.452-0.352c-0.044-0.027-0.091-0.048-0.137-0.072  c-0.123-0.066-0.248-0.123-0.378-0.167c-0.054-0.018-0.108-0.034-0.164-0.049c-0.135-0.035-0.27-0.058-0.408-0.071  c-0.05-0.005-0.099-0.013-0.15-0.014c-0.189-0.006-0.377,0.004-0.563,0.04c-0.002,0-0.004,0-0.005,0l-12.5,2.5  c-1.354,0.271-2.232,1.588-1.961,2.942c0.271,1.354,1.585,2.23,2.942,1.961l4.658-0.932c-4.835,5.19-9.337,10.518-13.233,15.697  C17.963,56.218,17.5,53.163,17.5,50c0-17.92,14.58-32.5,32.5-32.5c12.67,0,23.662,7.292,29.02,17.896  c-3.792,5.283-8.553,11.138-14.286,17.319l0.824-4.118C65.829,47.243,64.951,45.926,63.597,45.655z M10.518,89.482  c-2.055-2.055,0.37-9.65,7.297-20.263c3.186,5.316,7.65,9.78,12.966,12.966C20.169,89.113,12.575,91.537,10.518,89.482z   M82.185,30.781c-3.186-5.315-7.65-9.779-12.965-12.965c10.613-6.927,18.206-9.351,20.262-7.298  C91.538,12.573,89.113,20.167,82.185,30.781z"></path>
</svg>