<svg xmlns="http://www.w3.org/2000/svg" xmlns:xlink="http://www.w3.org/1999/xlink" version="1.1" x="0px" y="0px" viewBox="0 0 64 64" enable-background="new 0 0 64 64" xml:space="preserve"><g display="none"><rect x="-232" y="-308.042" display="inline" fill="#000000" width="779" height="383"></rect></g><g display="none"><g display="inline"><rect x="0.5" y="10.458" fill="#000000" width="63" height="49"></rect><path fill="#000000" d="M63,10.958v48H1v-48H63 M64,9.958H0v50h64V9.958L64,9.958z"></path></g><g display="inline"><path fill="#000000" d="M64,9.958v-3c0-1.65-1.35-3-3-3H3c-1.65,0-3,1.35-3,3v3H64z"></path><g><circle fill="#000000" cx="4.021" cy="6.958" r="0.854"></circle><circle fill="#000000" cx="6.583" cy="6.958" r="0.854"></circle><circle fill="#000000" cx="9.146" cy="6.958" r="0.854"></circle></g><path fill="#000000" d="M55.5,8.458h-37c-0.825,0-1.5-0.675-1.5-1.5v0c0-0.825,0.675-1.5,1.5-1.5h37c0.825,0,1.5,0.675,1.5,1.5v0    C57,7.783,56.325,8.458,55.5,8.458z"></path></g><rect x="29" y="26.958" display="inline" fill="#000000" width="28" height="1"></rect><rect x="29" y="29.958" display="inline" fill="#000000" width="28" height="1"></rect><rect x="29" y="32.958" display="inline" fill="#000000" width="28" height="1"></rect><rect x="29" y="35.958" display="inline" fill="#000000" width="28" height="1"></rect><rect x="29" y="38.958" display="inline" fill="#000000" width="28" height="1"></rect><rect x="29" y="41.958" display="inline" fill="#000000" width="28" height="1"></rect><rect x="29" y="44.958" display="inline" fill="#000000" width="28" height="1"></rect><rect x="29" y="47.958" display="inline" fill="#000000" width="28" height="1"></rect><rect x="29" y="50.958" display="inline" fill="#000000" width="28" height="1"></rect><rect x="29" y="53.958" display="inline" fill="#000000" width="28" height="1"></rect><rect x="29" y="17.958" display="inline" fill="#000000" width="28" height="1"></rect><rect x="29" y="20.958" display="inline" fill="#000000" width="28" height="1"></rect><rect x="29" y="23.958" display="inline" fill="#000000" width="28" height="1"></rect><rect x="29" y="14.958" display="inline" fill="#000000" width="28" height="1"></rect><rect x="7" y="14.958" display="inline" fill="#000000" width="16" height="40"></rect></g><g display="none"><g display="inline"><rect x="0.5" y="10.458" fill="#000000" width="63" height="49"></rect><path fill="#000000" d="M63,10.958v48H1v-48H63 M64,9.958H0v50h64V9.958L64,9.958z"></path></g><g display="inline"><path fill="#000000" d="M64,9.958v-3c0-1.65-1.35-3-3-3H3c-1.65,0-3,1.35-3,3v3H64z"></path><g><circle fill="#000000" cx="4.021" cy="6.958" r="0.854"></circle><circle fill="#000000" cx="6.583" cy="6.958" r="0.854"></circle><circle fill="#000000" cx="9.146" cy="6.958" r="0.854"></circle></g><path fill="#000000" d="M55.5,8.458h-37c-0.825,0-1.5-0.675-1.5-1.5v0c0-0.825,0.675-1.5,1.5-1.5h37c0.825,0,1.5,0.675,1.5,1.5v0    C57,7.783,56.325,8.458,55.5,8.458z"></path></g><rect x="29" y="26.958" display="inline" fill="#000000" width="28" height="1"></rect><rect x="29" y="29.958" display="inline" fill="#000000" width="28" height="1"></rect><rect x="29" y="32.958" display="inline" fill="#000000" width="28" height="1"></rect><rect x="29" y="35.958" display="inline" fill="#000000" width="28" height="1"></rect><rect x="29" y="38.958" display="inline" fill="#000000" width="28" height="1"></rect><rect x="29" y="41.958" display="inline" fill="#000000" width="28" height="1"></rect><rect x="29" y="44.958" display="inline" fill="#000000" width="28" height="1"></rect><rect x="29" y="47.958" display="inline" fill="#000000" width="28" height="1"></rect><rect x="29" y="50.958" display="inline" fill="#000000" width="28" height="1"></rect><rect x="29" y="53.958" display="inline" fill="#000000" width="28" height="1"></rect><rect x="29" y="17.958" display="inline" fill="#000000" width="28" height="1"></rect><rect x="29" y="20.958" display="inline" fill="#000000" width="28" height="1"></rect><rect x="29" y="23.958" display="inline" fill="#000000" width="28" height="1"></rect><rect x="29" y="14.958" display="inline" fill="#000000" width="28" height="1"></rect><rect x="7" y="14.958" display="inline" fill="#000000" width="16" height="40"></rect></g><g display="none"><g display="inline"><rect x="0.5" y="10.458" fill="#000000" width="63" height="49"></rect><path fill="#000000" d="M63,10.958v48H1v-48H63 M64,9.958H0v50h64V9.958L64,9.958z"></path></g><g display="inline"><path d="M64,9.958v-3c0-1.65-1.35-3-3-3H3c-1.65,0-3,1.35-3,3v3H64z"></path><g><circle cx="4.021" cy="6.958" r="0.854"></circle><circle cx="6.583" cy="6.958" r="0.854"></circle><circle cx="9.146" cy="6.958" r="0.854"></circle></g><path fill="#000000" d="M55.5,8.458h-37c-0.825,0-1.5-0.675-1.5-1.5v0c0-0.825,0.675-1.5,1.5-1.5h37c0.825,0,1.5,0.675,1.5,1.5v0    C57,7.783,56.325,8.458,55.5,8.458z"></path></g><rect x="29" y="26.958" display="inline" width="28" height="1"></rect><rect x="29" y="29.958" display="inline" width="28" height="1"></rect><rect x="29" y="32.958" display="inline" width="28" height="1"></rect><rect x="29" y="35.958" display="inline" width="28" height="1"></rect><rect x="29" y="38.958" display="inline" width="28" height="1"></rect><rect x="29" y="41.958" display="inline" width="28" height="1"></rect><rect x="29" y="44.958" display="inline" width="28" height="1"></rect><rect x="29" y="47.958" display="inline" width="28" height="1"></rect><rect x="29" y="50.958" display="inline" width="28" height="1"></rect><rect x="29" y="53.958" display="inline" width="28" height="1"></rect><rect x="29" y="17.958" display="inline" width="28" height="1"></rect><rect x="29" y="20.958" display="inline" width="28" height="1"></rect><rect x="29" y="23.958" display="inline" width="28" height="1"></rect><rect x="29" y="14.958" display="inline" width="28" height="1"></rect><rect x="7" y="14.958" display="inline" width="16" height="40"></rect></g><g><g><rect x="29" y="26.459" width="28" height="1"></rect><rect x="29" y="29.459" width="28" height="1"></rect><rect x="29" y="32.459" width="28" height="1"></rect><rect x="29" y="35.459" width="28" height="1"></rect><rect x="29" y="38.459" width="28" height="1"></rect><rect x="29" y="41.459" width="28" height="1"></rect><rect x="29" y="44.459" width="28" height="1"></rect><rect x="29" y="47.459" width="28" height="1"></rect><rect x="29" y="50.459" width="28" height="1"></rect><rect x="29" y="53.459" width="28" height="1"></rect><rect x="29" y="17.459" width="28" height="1"></rect><rect x="29" y="20.459" width="28" height="1"></rect><rect x="29" y="23.459" width="28" height="1"></rect><rect x="29" y="14.459" width="28" height="1"></rect><rect x="7" y="14.459" width="16" height="40"></rect><path d="M59.189,2H4.811C2.154,2,0,4.154,0,6.811V8v49.189C0,59.846,2.154,62,4.811,62h54.377C61.846,62,64,59.846,64,57.189V8    V6.811C64,4.154,61.846,2,59.189,2z M14.854,3.875c0.621,0,1.125,0.504,1.125,1.125c0,0.621-0.504,1.125-1.125,1.125    S13.729,5.621,13.729,5C13.729,4.379,14.233,3.875,14.854,3.875z M11.479,3.875c0.621,0,1.125,0.504,1.125,1.125    c0,0.621-0.504,1.125-1.125,1.125S10.354,5.621,10.354,5C10.354,4.379,10.858,3.875,11.479,3.875z M8.104,3.875    c0.621,0,1.125,0.504,1.125,1.125c0,0.621-0.504,1.125-1.125,1.125C7.483,6.125,6.979,5.621,6.979,5    C6.979,4.379,7.483,3.875,8.104,3.875z M63,56.189C63,58.846,60.846,61,58.189,61H5.811C3.154,61,1,58.846,1,56.189V12.811    C1,10.154,3.154,8,5.811,8h52.377C60.846,8,63,10.154,63,12.811V56.189z"></path></g></g><g display="none"><g display="inline"><path d="M59.189,2H4.811C2.154,2,0,4.154,0,6.811V8v49.189C0,59.846,2.154,62,4.811,62h54.377C61.846,62,64,59.846,64,57.189V8    V6.811C64,4.154,61.846,2,59.189,2z M14.854,4.083c0.621,0,1.125,0.504,1.125,1.125s-0.504,1.125-1.125,1.125    s-1.125-0.504-1.125-1.125S14.233,4.083,14.854,4.083z M11.479,4.083c0.621,0,1.125,0.504,1.125,1.125S12.1,6.333,11.479,6.333    s-1.125-0.504-1.125-1.125S10.858,4.083,11.479,4.083z M8.104,4.083c0.621,0,1.125,0.504,1.125,1.125S8.725,6.333,8.104,6.333    c-0.621,0-1.125-0.504-1.125-1.125S7.483,4.083,8.104,4.083z M62.579,57.301c0,1.811-1.468,3.279-3.279,3.279H4.699    c-1.811,0-3.279-1.468-3.279-3.279V11.699c0-1.811,1.468-3.279,3.279-3.279h54.601c1.811,0,3.279,1.468,3.279,3.279V57.301z"></path><path d="M59.301,9.121H4.699c-1.422,0-2.579,1.157-2.579,2.579v45.601c0,1.422,1.157,2.579,2.579,2.579h54.601    c1.422,0,2.579-1.157,2.579-2.579V11.699C61.879,10.277,60.723,9.121,59.301,9.121z M29,38.459h28v1H29V38.459z M29,44.459h28v1    H29V44.459z M23,54.459H7v-40h16V54.459z M29,50.459h28v1H29V50.459z M57,54.459H29v-1h28V54.459z M57,48.459H29v-1h28V48.459z     M57,42.459H29v-1h28V42.459z M57,36.459H29v-1h28V36.459z M57,33.459H29v-1h28V33.459z M57,30.459H29v-1h28V30.459z M57,27.459    H29v-1h28V27.459z M57,24.459H29v-1h28V24.459z M57,21.459H29v-1h28V21.459z M57,18.459H29v-1h28V18.459z M57,15.459H29v-1h28    V15.459z"></path></g></g></svg>