<?xml version="1.0" encoding="UTF-8" standalone="no"?>
<svg width="70px" height="70px" viewBox="0 0 70 70" version="1.1" xmlns="http://www.w3.org/2000/svg" xmlns:xlink="http://www.w3.org/1999/xlink" xmlns:sketch="http://www.bohemiancoding.com/sketch/ns">
    <!-- Generator: Sketch 3.3.2 (12043) - http://www.bohemiancoding.com/sketch -->
    <title>Logo</title>
    <desc>Created with Sketch.</desc>
    <defs></defs>
    <g id="Page-1" stroke="none" stroke-width="1" fill="none" fill-rule="evenodd" sketch:type="MSPage">
        <g id="Design-school" sketch:type="MSArtboardGroup" transform="translate(-925.000000, -10.000000)" fill="#FFFFFF">
            <g id="Header" sketch:type="MSLayerGroup" transform="translate(0.000000, -49.000000)">
                <g id="Logo" transform="translate(925.000000, 59.000000)" sketch:type="MSShapeGroup">
                    <path d="M35,0 C15.6702778,0 0,15.6702778 0,35 C0,54.3297222 15.6702778,70 35,70 C54.3297222,70 70,54.3297222 70,35 C70,15.6702778 54.3297222,0 35,0 L35,0 Z M58.3994444,35.9994444 C58.0008333,35.9994444 57.3008333,35.9002778 57.3008333,35.4997222 C57.3008333,35.0991667 58.1991667,35.2994444 58.1,34.3991667 C58.0008333,33.8002778 57.4,33.6 56.7991667,33.6 C54.8002778,33.6 53.4994444,36.1997222 53.8008333,38.2997222 C53.9,39.1008333 54.3005556,39.9991667 55.0997222,39.9991667 C55.7005556,39.9991667 56.6008333,39.1008333 56.9994444,37.8 C57.1997222,37.0008333 58.0008333,36.3008333 58.7008333,36.3008333 C59.0002778,36.3008333 59.2005556,36.4 59.2997222,36.8005556 C59.2997222,37.0008333 59.2997222,37.3994444 58.8991667,38.7002778 C58.3994444,39.6005556 58.3994444,40.1002778 58.5005556,40.5008333 C58.5997222,41.3 59.0002778,41.9008333 59.4008333,42.2002778 C59.5,42.2994444 59.5991667,42.4997222 59.5991667,42.4997222 C59.5991667,42.7 59.5,42.9002778 59.2005556,42.9002778 C59.0994444,42.9002778 59.0002778,42.9002778 58.8991667,42.7991667 C57.4,42.2002778 56.7991667,41.2008333 56.6008333,40.1994444 C56,40.8994444 55.3,41.3 54.5008333,41.3 C53.2,41.3 51.8991667,40.1002778 51.7008333,38.5991667 C51.6308333,37.9983333 51.7202778,37.3488889 51.9166667,36.7072222 C51.3236111,37.0883333 50.6858333,37.3002778 50.1005556,37.3002778 L49.5988889,37.3002778 C48.3,39.2 46.9,40.5008333 45.9005556,41.0997222 C45.5,41.3 45.0994444,41.3991667 44.8,41.3991667 C44.5997222,41.3991667 44.3002778,41.3 44.1991667,41.0997222 C43.9230556,40.6563889 43.7441667,39.9544444 43.6352778,39.1533333 C42.2333333,40.6894444 40.2966667,41.5002778 39.4002778,41.5002778 C38.4008333,41.5002778 37.8,40.8994444 37.7008333,39.9 L37.7008333,38.7994444 C38.0002778,36.6002778 38.7994444,35.2994444 38.7994444,34.8988889 C38.7994444,34.7997222 38.7002778,34.7005556 38.5991667,34.7005556 C37.9011111,34.7005556 35.6008333,37.1 35.2002778,38.7002778 L34.8988889,39.9991667 C34.7005556,40.8994444 33.8002778,41.5002778 33.1994444,41.5002778 C32.9,41.5002778 32.6997222,41.3991667 32.6005556,41.0005556 L32.6005556,40.6 C32.6005556,40.6 32.6530556,40.3316667 32.7347222,39.9194444 C31.4669444,40.8236111 30.1952778,41.3991667 29.6002778,41.3991667 C28.7,41.3991667 28.2002778,40.8994444 28.0991667,40.1994444 C27.5002778,41.0005556 26.8002778,41.3991667 25.9,41.3991667 C24.8733333,41.3991667 23.87,40.7011111 23.3838889,39.6725 C22.6741667,40.4736111 21.8613889,41.2825 20.9008333,41.9008333 C19.5008333,42.7991667 17.9005556,43.4991667 16.0008333,43.4991667 C14.2994444,43.4991667 12.8002778,42.6008333 11.9991667,41.7997222 C10.7994444,40.6991667 10.0994444,38.9997222 10.0002778,37.3994444 C9.39944444,32.4994444 12.3997222,26.1994444 17.0002778,23.3994444 C18.1008333,22.8005556 19.1994444,22.4 20.3,22.4 C22.4991667,22.4 24.2005556,24.0002778 24.4008333,25.9 C24.5991667,27.5994444 23.8991667,29.1005556 21.9994444,30.0008333 C21,30.5005556 20.5994444,30.5005556 20.3991667,30.1991667 C20.3,30.0008333 20.3991667,29.8005556 20.5994444,29.6002778 C22.4,28.0991667 22.4,26.8994444 22.1997222,25.2 C22.1005556,24.0994444 21.2994444,23.3994444 20.5002778,23.3994444 C17.0002778,23.3994444 11.9991667,31.2005556 12.6991667,36.8997222 C13.0005556,39.1008333 14.2994444,41.7005556 17.0994444,41.7005556 C17.9997222,41.7005556 18.9991667,41.3991667 19.8994444,41.0005556 C21.3597222,40.2305556 22.2308333,39.6297222 23.1,38.6711111 C22.8861111,36.085 25.1533333,32.6997222 28.4997222,32.6997222 C30.0008333,32.6997222 31.2005556,33.3005556 31.2997222,34.3991667 C31.5,35.9002778 30.1991667,36.1005556 29.8005556,36.1005556 C29.4,36.1005556 28.7,35.9994444 28.7,35.6008333 C28.6008333,35.2002778 29.6002778,35.4005556 29.4991667,34.5002778 C29.4,33.8994444 28.7991667,33.6991667 28.2002778,33.6991667 C26.1002778,33.6991667 24.9005556,36.6002778 25.2,38.4008333 C25.2991667,39.2 25.6997222,39.9991667 26.5008333,39.9991667 C27.0997222,39.9991667 28,39.1008333 28.2994444,37.8 C28.4997222,36.8997222 29.2988889,36.3008333 30.0008333,36.3008333 C30.3002778,36.3008333 30.5005556,36.4 30.5997222,36.8005556 L30.5997222,37.1991667 C30.5005556,37.5997222 30.1991667,38.7994444 30.3002778,39.1008333 C30.3002778,39.2991667 30.3994444,39.6005556 30.8,39.6005556 C31.0644444,39.6005556 32.0677778,39.0716667 33.0633333,38.2569444 C33.4016667,36.5380556 33.8002778,34.4730556 33.8002778,34.3 C33.8994444,33.6 34.2008333,32.9 35.6008333,32.9 C35.9002778,32.9 36.1005556,32.9991667 36.1997222,33.3997222 L36.1997222,33.8002778 L35.7991667,35.6008333 C37.1,33.8994444 38.9997222,32.6997222 40.1994444,32.6997222 C40.6991667,32.6997222 41.0997222,32.9991667 41.0997222,33.5008333 C41.0997222,33.8002778 41.0997222,34.3 40.8994444,34.7997222 C40.5008333,35.9002778 39.9991667,37.5997222 39.6997222,39.1008333 C39.6997222,39.4994444 39.8008333,39.9 40.3005556,39.9 C40.8002778,39.9 42.2994444,39.2991667 43.4991667,37.7008333 C43.505,37.695 43.5147222,37.6911111 43.5186111,37.6872222 C43.5127778,37.4908333 43.4991667,37.2983333 43.4991667,37.1 C43.4991667,35.9002778 43.6002778,34.8988889 43.8005556,34.2008333 C44.0008333,33.3997222 45.0002778,32.6997222 45.5991667,32.6997222 C45.9005556,32.6997222 46.2,32.9 46.2,33.1994444 C46.2,33.3005556 46.2,33.5008333 46.1008333,33.6 C45.7002778,34.8988889 45.4008333,36.1005556 45.4008333,37.3002778 C45.4008333,38.0002778 45.5,38.9997222 45.7002778,39.6005556 C45.7002778,39.6997222 45.7994444,39.8008333 45.9005556,39.8008333 C46.1008333,39.8008333 47.5008333,38.5 48.5002778,36.8005556 C47.6,36.1997222 47.1002778,35.2002778 47.1002778,34.0005556 C47.1002778,31.9005556 48.3991667,30.8 49.5988889,30.8 C50.6002778,30.8 51.3994444,31.5 51.3994444,32.9 C51.3994444,33.8002778 51.1,34.7997222 50.6002778,35.7 L50.8997222,35.7 C51.7008333,35.7 52.2005556,35.4005556 52.5991667,35 C52.7313889,34.8036111 52.8616667,34.7141667 52.9919444,34.6597222 C53.9680556,33.4191667 55.4127778,32.4994444 57.1005556,32.4994444 C58.5005556,32.4994444 59.7994444,33.1002778 59.9005556,34.2008333 C60.1008333,35.7 58.8,35.9994444 58.3994444,35.9994444 L58.3994444,35.9994444 Z" id="Fill-1"></path>
                    <path d="M48.7997222,31.9997222 C48.5002778,31.9997222 48.3,32.4994444 48.3,32.9991667 C48.3,33.8002778 48.7005556,34.7005556 49.2002778,35.2002778 C49.4005556,34.5994444 49.4997222,34.0997222 49.4997222,33.5008333 C49.4997222,32.4994444 49.0991667,31.9997222 48.7997222,31.9997222" id="Fill-2"></path>
                </g>
            </g>
        </g>
    </g>
</svg>