<svg xmlns="http://www.w3.org/2000/svg" xmlns:xlink="http://www.w3.org/1999/xlink" version="1.1" x="0px" y="0px" viewBox="0 0 100 100" style="enable-background:new 0 0 100 100;" xml:space="preserve"><path d="M50,5C25.1,5,5,25.1,5,50c0,24.9,20.1,45,45,45c24.9,0,45-20.1,45-45C95,25.1,74.9,5,50,5z M50,8.9  c22.6,0,41.1,18.4,41.1,41c0,9.4-3.2,18-8.5,25H52v-9h22V35H57.7l7.6-15.4L61.7,18l-8.5,17h-6.6l-8.5-17.1l-3.5,1.9L42.3,35H25v31  h23v9H17.5c-5.4-7-8.5-15.6-8.5-25C8.9,27.3,27.4,8.9,50,8.9z M70,39v23H29V39H70z M50,91.1C38.7,91.1,28.4,87,20.9,79h58.1  C71.6,87,61.3,91.1,50,91.1z M37.1,47.5c0-1.1,0.9-2,2-2s2,0.9,2,2s-0.9,2-2,2S37.1,48.6,37.1,47.5z M59,47.5c0-1.1,0.9-2,2-2  s2,0.9,2,2s-0.9,2-2,2S59,48.6,59,47.5z M41,53h18v4H41V53z"></path></svg>