<svg 
  xmlns="http://www.w3.org/2000/svg" 
  xmlns:xlink="http://www.w3.org/1999/xlink" version="1.1" x="0px" y="0px" viewBox="0 0 68.749 100.001" enable-background="new 0 0 68.749 100.001" xml:space="preserve">
  <path fill="none" d="M8.398,87.501c-2.297,0-4.167,1.867-4.167,4.166c0,2.295,1.87,4.167,4.167,4.167h52.083v-8.333H10.482H8.398z"></path>
  <path d="M66.666,0H8.333C3.737,0,0,3.737,0,8.334v83.333c0,4.594,3.737,8.334,8.333,8.334h54.165  c1.152,0,2.084-0.933,2.084-2.084V87.501h2.083c1.151,0,2.083-0.933,2.083-2.084V2.083C68.749,0.932,67.817,0,66.666,0z   M27.769,53.228L12.716,67.144L4.86,57.585V46.73l9.509-9.014L27.769,53.228z M17.395,34.848l17.031-16.142  c1.945-1.851,4.497-2.873,7.182-2.873c2.881,0,5.56,1.147,7.544,3.231c3.961,4.163,3.8,10.771-0.338,14.709L30.829,50.4  L17.395,34.848z M4.86,74.403V64.145l4.792,5.831L4.86,74.403z M60.416,95.834H8.333c-2.297,0-4.167-1.872-4.167-4.167  c0-2.299,1.87-4.166,4.167-4.166h52.082V95.834z M64.583,83.334H12.5V73.015l39.165-36.202c5.824-5.546,6.049-14.794,0.504-20.622  c-2.778-2.917-6.53-4.524-10.561-4.524c-3.76,0-7.331,1.428-10.051,4.02L12.5,33.75V4.167h52.083V83.334z"></path>
  <circle cx="36.175" cy="22.918" r="2.083"></circle>
  <circle cx="40.342" cy="27.084" r="2.083"></circle>
  <circle cx="44.509" cy="31.251" r="2.083"></circle>
  <circle cx="32.009" cy="27.084" r="2.083"></circle>
  <circle cx="36.175" cy="31.251" r="2.083"></circle>
  <circle cx="40.342" cy="35.418" r="2.083"></circle>
  <circle cx="27.842" cy="31.251" r="2.083"></circle>
  <circle cx="32.009" cy="35.418" r="2.083"></circle>
  <circle cx="36.175" cy="39.584" r="2.083"></circle>
</svg>