<svg xmlns="http://www.w3.org/2000/svg" xmlns:xlink="http://www.w3.org/1999/xlink" version="1.1" x="0px" y="0px" viewBox="0 0 100 100" enable-background="new 0 0 100 100" xml:space="preserve"><path d="M86.848,43.926c-0.103,0-0.202,0.009-0.304,0.016l2.439-0.947c1.628-0.633,2.438-2.473,1.807-4.102  c-0.47-1.209-1.657-2.022-2.955-2.022c-0.392,0-0.777,0.072-1.146,0.216l-3.936,1.528v-3.739c0-4.16-3.493-7.543-7.787-7.543H25.088  c-3.977,0-7.291,2.9-7.735,6.68c-1.066,0.092-2.001,0.437-2.784,1.029c-2.182,1.65-2.801,5.022-1.677,8.898  c-2.704,0.137-4.864,2.374-4.864,5.111v15.861c0,2.687,2.08,4.893,4.712,5.104c-0.048,0.143-0.076,0.295-0.076,0.454  c0,0.776,0.632,1.408,1.409,1.408h12.276c0.776,0,1.408-0.632,1.408-1.408c0-0.151-0.024-0.296-0.068-0.433h44.56  c-0.045,0.137-0.069,0.281-0.069,0.433c0,0.776,0.632,1.408,1.409,1.408h12.275c0.776,0,1.408-0.632,1.408-1.408  c0-0.158-0.026-0.309-0.074-0.451c2.662-0.181,4.773-2.398,4.773-5.106V49.051C91.972,46.226,89.673,43.926,86.848,43.926z   M87.042,37.997c0.256-0.099,0.522-0.149,0.793-0.149c0.898,0,1.72,0.563,2.045,1.399c0.438,1.127-0.123,2.4-1.25,2.838  L67.346,50.35L65.4,51.105l-5.547,2.153H54.95c0.012-0.021,0.021-0.044,0.032-0.064c0.036-0.063,0.068-0.128,0.1-0.194  c0.021-0.045,0.042-0.089,0.061-0.136c0.028-0.069,0.052-0.141,0.075-0.212c0.015-0.045,0.03-0.089,0.042-0.135  c0.021-0.08,0.036-0.161,0.051-0.243c0.007-0.04,0.016-0.078,0.021-0.118c0.016-0.123,0.025-0.246,0.025-0.371  c0-1.588-1.291-2.879-2.879-2.879h-14.48c-0.004-0.009-0.01-0.017-0.015-0.025c-0.022-0.042-0.047-0.081-0.071-0.121  c-0.038-0.064-0.075-0.128-0.116-0.19c-0.027-0.042-0.057-0.082-0.085-0.122c-0.041-0.058-0.083-0.115-0.127-0.171  c-0.031-0.04-0.063-0.078-0.096-0.116c-0.046-0.054-0.093-0.106-0.141-0.157c-0.034-0.036-0.069-0.072-0.104-0.107  c-0.051-0.05-0.104-0.098-0.157-0.146c-0.037-0.032-0.072-0.065-0.11-0.096c-0.057-0.047-0.116-0.092-0.176-0.136  c-0.037-0.027-0.072-0.055-0.11-0.081c-0.068-0.046-0.138-0.09-0.208-0.132c-0.033-0.02-0.064-0.041-0.097-0.06  c-0.105-0.06-0.212-0.115-0.323-0.166l-4.004-1.825c0.007-0.061,0.012-0.119,0.021-0.18c0.091-0.037,0.178-0.082,0.266-0.123  c0.041-0.019,0.082-0.037,0.122-0.056c0,0,0,0,0,0c0.137-0.067,0.27-0.139,0.4-0.215c0.033-0.019,0.067-0.038,0.101-0.057  c0,0,0.001-0.001,0.001-0.001c0.088-0.053,0.173-0.11,0.258-0.167c0,0,0,0,0.001-0.001c0.023-0.016,0.046-0.032,0.07-0.048  c0.13-0.09,0.255-0.185,0.375-0.284c0.001-0.001,0.002-0.002,0.004-0.003c0.062-0.051,0.125-0.102,0.186-0.155c0,0,0,0,0.001-0.001  c0.098-0.087,0.19-0.18,0.281-0.274c0.037-0.036,0.073-0.071,0.108-0.109c0,0,0,0,0,0c0.074-0.081,0.142-0.165,0.211-0.249  c0,0,0,0,0,0c0.003-0.004,0.007-0.008,0.01-0.013c0.118-0.145,0.229-0.295,0.331-0.451c0,0,0,0,0,0  c0.033-0.05,0.069-0.099,0.101-0.15l0,0c0.094-0.154,0.181-0.313,0.259-0.476c0.053-0.11,0.101-0.222,0.146-0.334v0  c0.014-0.036,0.026-0.072,0.04-0.107c0.001-0.003,0.002-0.005,0.003-0.008c0.034-0.089,0.065-0.179,0.094-0.27  c0.008-0.029,0.017-0.058,0.026-0.087c0-0.002,0.001-0.004,0.001-0.006c0.021-0.069,0.041-0.138,0.059-0.208c0,0,0-0.001,0-0.002  c0.008-0.033,0.016-0.066,0.023-0.099c0.02-0.084,0.038-0.169,0.053-0.254c0,0,0-0.001,0-0.001c0.009-0.049,0.017-0.098,0.025-0.146  c0-0.001,0-0.002,0-0.003c0.011-0.07,0.02-0.141,0.028-0.211l0,0c0.004-0.033,0.007-0.065,0.01-0.098  c0.009-0.088,0.015-0.177,0.02-0.267c0-0.001,0-0.003,0-0.004c0.002-0.038,0.003-0.075,0.005-0.112  c0.004-0.146,0.005-0.292-0.002-0.441c0.964-0.473,2.005-0.621,3.075-0.401l0.255,0.053l0.186-0.183  c2.419-2.383,6.089-3.75,10.066-3.75c6.115,0,11.345,3.271,12.437,7.776c0.137,0.566,0.206,1.137,0.206,1.695  c0,0.763-0.124,1.527-0.368,2.27l-0.324,0.982L87.042,37.997z M83.614,45.08c-0.323,0.264-0.61,0.569-0.861,0.903v-0.568  L83.614,45.08z M25.681,46.907c0.331-0.726,0.921-1.296,1.663-1.606c0.204-0.085,0.414-0.148,0.628-0.189  c0.104-0.021,0.21-0.035,0.316-0.044c0.322,0.039,0.643,0.059,0.958,0.059c0.218,0.047,0.432,0.117,0.638,0.211l0.318,0.145  l0.517,0.235l0.299,0.136l0.412,0.188l0.532,0.243l0,0l3.696,1.685c0.71,0.324,1.274,0.899,1.588,1.621  c0.36,0.827,0.354,1.768-0.018,2.582c-0.051,0.112-0.109,0.22-0.172,0.323c-0.02,0.034-0.044,0.065-0.065,0.099  c-0.045,0.068-0.09,0.136-0.14,0.2c-0.028,0.037-0.06,0.072-0.09,0.107c-0.048,0.057-0.097,0.113-0.149,0.166  c-0.035,0.036-0.072,0.069-0.109,0.104c-0.033,0.03-0.067,0.059-0.102,0.088h-4.433l-0.12-0.055l-0.517-0.235l0,0l-4.079-1.858  C25.661,50.384,24.956,48.499,25.681,46.907z M25.381,42.799c-0.001-0.001-0.001-0.003-0.002-0.005  c-0.003-0.007-0.007-0.014-0.011-0.021c-0.044-0.083-0.089-0.165-0.137-0.248c0,0,0-0.001,0-0.001  c-0.007-0.012-0.014-0.024-0.021-0.037c-0.045-0.077-0.091-0.154-0.139-0.231c-0.001-0.001-0.002-0.003-0.003-0.005  c-0.03-0.047-0.061-0.094-0.091-0.141c-0.002-0.003-0.004-0.007-0.007-0.01c-0.055-0.084-0.113-0.167-0.172-0.25  c-0.016-0.021-0.03-0.043-0.046-0.064c0,0,0-0.001-0.001-0.001c-0.024-0.034-0.048-0.067-0.073-0.101c0,0-0.001-0.001-0.001-0.002  c-0.01-0.014-0.02-0.028-0.03-0.042c-0.053-0.07-0.111-0.143-0.172-0.217c-0.025-0.031-0.051-0.061-0.077-0.091  c-0.003-0.003-0.006-0.006-0.008-0.009c-0.046-0.054-0.091-0.108-0.141-0.165c0,0-0.001-0.001-0.001-0.001  c-0.061-0.069-0.125-0.136-0.189-0.204c-0.015-0.016-0.029-0.031-0.044-0.046l0,0c-0.076-0.079-0.155-0.157-0.236-0.233  c-0.005-0.006-0.012-0.011-0.017-0.017c0,0-0.001-0.001-0.002-0.001c-0.087-0.083-0.177-0.164-0.269-0.243  c-0.004-0.003-0.008-0.007-0.012-0.01c-0.001-0.001-0.002-0.002-0.003-0.003c-0.193-0.166-0.396-0.324-0.611-0.475  c-0.001,0-0.001-0.001-0.002-0.001c-0.014-0.01-0.029-0.02-0.044-0.03c-0.241-0.166-0.495-0.32-0.763-0.461  c-0.027-0.014-0.053-0.028-0.08-0.042c-0.039-0.02-0.077-0.042-0.116-0.061c-0.02-0.076-0.042-0.149-0.06-0.229l-0.01-0.043  c-0.032-0.152-0.057-0.292-0.076-0.435c-0.016-0.125-0.027-0.258-0.034-0.394c0-0.011-0.002-0.02-0.002-0.031l-0.002-0.034  c-0.005-0.13-0.004-0.266,0.002-0.402c0-0.002,0-0.003,0-0.005l0.003-0.063c0.009-0.148,0.022-0.28,0.04-0.404l0-0.002l0.002-0.013  c0.005-0.038,0.013-0.078,0.021-0.118c0.015-0.084,0.033-0.172,0.055-0.265l0.016-0.067c0.031-0.123,0.069-0.249,0.113-0.373  l0.027-0.073c0.055-0.148,0.105-0.268,0.157-0.377c0.05-0.105,0.106-0.207,0.163-0.306l0.001-0.002  c0.909-1.574,2.733-2.513,4.88-2.513c1.142,0,2.32,0.274,3.404,0.793c2.334,1.116,3.921,3.175,4.142,5.375  c0.088,0.88-0.051,1.712-0.416,2.475c-0.061,0.127-0.129,0.25-0.2,0.37c-0.021,0.035-0.043,0.069-0.065,0.104  c-0.056,0.088-0.114,0.173-0.175,0.256c-0.024,0.033-0.048,0.066-0.073,0.099c-0.085,0.109-0.173,0.215-0.269,0.316  c0,0-0.001,0.001-0.001,0.001s0,0.001-0.001,0.001c-0.094,0.1-0.195,0.195-0.299,0.287c-0.022,0.02-0.045,0.04-0.068,0.06  c-0.104,0.089-0.211,0.174-0.324,0.254c-0.019,0.014-0.039,0.026-0.058,0.04c-0.105,0.073-0.213,0.143-0.326,0.208  c-0.02,0.012-0.04,0.024-0.06,0.036c-0.124,0.07-0.252,0.136-0.384,0.198c-0.028,0.013-0.057,0.026-0.086,0.039  c-0.137,0.062-0.276,0.12-0.421,0.172l-0.002,0.001c-0.265,0.095-0.532,0.171-0.796,0.228c-0.07,0.015-0.14,0.027-0.211,0.039  l-0.178-0.081c-0.128-0.058-0.259-0.109-0.392-0.154c-0.041-0.013-0.083-0.022-0.124-0.035c-0.092-0.028-0.185-0.056-0.278-0.077  c-0.049-0.011-0.099-0.018-0.148-0.027c-0.087-0.017-0.174-0.033-0.262-0.044c-0.051-0.006-0.103-0.009-0.155-0.013  c-0.086-0.007-0.173-0.015-0.261-0.017c-0.052-0.001-0.104,0.001-0.155,0.002c-0.087,0.001-0.174,0.003-0.261,0.01  c-0.052,0.004-0.104,0.011-0.156,0.017c-0.086,0.01-0.172,0.021-0.257,0.036c-0.053,0.01-0.105,0.022-0.158,0.034  c-0.083,0.018-0.165,0.037-0.246,0.061c-0.057,0.016-0.113,0.035-0.169,0.054c-0.045,0.015-0.092,0.026-0.137,0.043  c-0.057-0.016-0.114-0.033-0.169-0.05c-0.009-0.002-0.017-0.005-0.025-0.007l-0.037-0.012c-0.101-0.032-0.202-0.066-0.301-0.103  l-0.067-0.024c-0.092-0.034-0.184-0.07-0.276-0.109L26.175,44c-0.113-0.048-0.225-0.098-0.338-0.152  c-0.03-0.088-0.063-0.178-0.099-0.269c-0.024-0.063-0.051-0.126-0.078-0.19c-0.01-0.023-0.019-0.047-0.029-0.071  c-0.036-0.081-0.074-0.163-0.113-0.246c-0.002-0.005-0.004-0.009-0.007-0.014C25.471,42.973,25.427,42.886,25.381,42.799z   M31.754,54.235h0.083h2.268h1.048h1.595h15.538h1.708h3.347l24.381,0.004v6.037H18.277v-6.041h12.484H31.754z M38.485,50.859  c0-0.119-0.005-0.238-0.016-0.356c-0.004-0.041-0.009-0.082-0.014-0.123c-0.011-0.092-0.024-0.184-0.042-0.276  c-0.008-0.043-0.016-0.087-0.026-0.13c-0.007-0.03-0.011-0.061-0.018-0.091h14.109c1.049,0,1.902,0.854,1.902,1.903  c0,0.074-0.005,0.148-0.014,0.222c-0.002,0.024-0.008,0.049-0.012,0.073c-0.008,0.049-0.016,0.097-0.027,0.144  c-0.007,0.029-0.016,0.057-0.023,0.085c-0.013,0.042-0.024,0.084-0.039,0.125c-0.011,0.029-0.024,0.058-0.036,0.086  c-0.017,0.039-0.033,0.077-0.052,0.114c-0.014,0.028-0.029,0.057-0.045,0.084c-0.021,0.036-0.042,0.071-0.064,0.106  c-0.018,0.026-0.036,0.052-0.055,0.078c-0.024,0.033-0.05,0.066-0.077,0.099c-0.021,0.024-0.04,0.048-0.062,0.071  c-0.029,0.031-0.06,0.062-0.092,0.092c-0.021,0.021-0.044,0.042-0.067,0.062c-0.014,0.012-0.028,0.022-0.042,0.033H37.721  c0.002-0.004,0.005-0.008,0.008-0.013c0.066-0.093,0.128-0.19,0.186-0.289c0.014-0.023,0.027-0.046,0.04-0.069  c0.058-0.102,0.113-0.205,0.161-0.313c0.056-0.121,0.103-0.246,0.146-0.371c0.013-0.039,0.024-0.078,0.037-0.117  c0.027-0.09,0.052-0.179,0.074-0.27c0.011-0.044,0.021-0.088,0.029-0.133c0.019-0.092,0.034-0.186,0.046-0.278  c0.005-0.038,0.012-0.077,0.016-0.115c0.014-0.131,0.022-0.262,0.023-0.393C38.486,50.885,38.485,50.872,38.485,50.859z   M62.55,53.259l1.574-0.611l1.539-0.598c-0.319,0.482-0.768,0.887-1.34,1.209H62.55z M65.926,53.26  c0.479-0.482,0.834-1.049,1.052-1.699c0.003-0.008,0.005-0.016,0.007-0.023l6.52-2.532l0.404-0.157  c0.22,1.393,0.357,2.871,0.409,4.413L65.926,53.26z M74.845,48.485l1.942-0.754l3.082-1.196c0.562,2.113,0.894,4.37,0.987,6.725  H75.3C75.245,51.589,75.093,49.987,74.845,48.485z M80.78,46.18l0.997-0.387l-0.055,5.75C81.558,49.681,81.241,47.886,80.78,46.18z   M70.656,40.913C70.656,40.913,70.656,40.913,70.656,40.913c-2.214,0.086-3.005,2.091-3.391,3.716l-4.532,1.76  c0.109-0.536,0.164-1.078,0.164-1.621c0-0.153-0.005-0.306-0.015-0.46c-0.002-0.048-0.008-0.096-0.012-0.144  c-0.008-0.107-0.017-0.213-0.029-0.32c-0.007-0.057-0.016-0.113-0.023-0.168c-0.014-0.1-0.027-0.199-0.045-0.297  c-0.011-0.06-0.023-0.119-0.035-0.179c-0.013-0.065-0.023-0.13-0.037-0.195c1.964-4.483,4.864-7.05,7.974-7.05  c2.497,0,4.884,1.672,6.764,4.725l-4.558,1.77C72.222,41.429,71.479,40.913,70.656,40.913z M71.944,42.813l-3.546,1.377  c0.483-1.556,1.192-2.258,2.276-2.301C71.08,41.889,71.521,42.216,71.944,42.813z M25.088,28.309h49.877  c3.756,0,6.812,2.946,6.812,6.567v4.118l-3.419,1.328c-2.077-3.447-4.792-5.343-7.684-5.343c-3.271,0-6.289,2.408-8.407,6.652  c-1.755-4.301-6.98-7.31-12.99-7.31c-4.133,0-7.968,1.402-10.568,3.854c-0.15-0.024-0.3-0.041-0.45-0.052  c-0.057-0.005-0.113-0.006-0.169-0.009c-0.09-0.005-0.181-0.008-0.27-0.008c-0.073,0-0.145,0.001-0.217,0.004  c-0.069,0.003-0.139,0.006-0.208,0.012c-0.084,0.006-0.169,0.013-0.253,0.023c-0.046,0.006-0.092,0.013-0.138,0.02  c-0.492,0.07-0.974,0.207-1.441,0.406c0,0-0.001,0-0.002,0c-0.478-2.274-2.179-4.333-4.583-5.482  c-1.215-0.581-2.538-0.888-3.825-0.888c-2.331,0-4.348,0.976-5.49,2.631c-0.045-0.02-0.09-0.039-0.134-0.058  c-0.048-0.02-0.096-0.038-0.144-0.057c-0.129-0.052-0.257-0.102-0.385-0.148c-0.052-0.019-0.104-0.036-0.156-0.054  c-0.125-0.043-0.25-0.084-0.374-0.122c-0.049-0.015-0.098-0.029-0.147-0.043c-0.129-0.038-0.257-0.072-0.385-0.104  c-0.042-0.01-0.084-0.021-0.125-0.031c-0.141-0.033-0.28-0.062-0.419-0.087c-0.028-0.005-0.058-0.012-0.086-0.017  c-0.328-0.057-0.652-0.096-0.971-0.113C18.785,30.77,21.654,28.309,25.088,28.309z M15.158,35.82  c0.721-0.545,1.614-0.833,2.654-0.855c1.031-0.021,2.186,0.226,3.367,0.719c-0.01,0.022-0.02,0.047-0.03,0.07  c-0.009,0.021-0.018,0.042-0.026,0.063c-0.027,0.064-0.053,0.132-0.081,0.206c-0.001,0.004-0.003,0.008-0.005,0.012h0  c0,0,0,0.001-0.001,0.001l-0.032,0.088c-0.009,0.026-0.015,0.052-0.024,0.078c-0.042,0.126-0.083,0.253-0.114,0.376l-0.019,0.081  c0,0.002-0.001,0.004-0.001,0.006c0,0,0,0,0,0.001c0,0,0,0,0,0.001c-0.012,0.051-0.022,0.1-0.033,0.148  c-0.006,0.028-0.013,0.059-0.019,0.086c-0.015,0.077-0.028,0.151-0.039,0.224v0v0l-0.001,0.005l-0.002,0.013  c-0.011,0.075-0.021,0.152-0.029,0.233c0,0,0,0.001,0,0.002c-0.003,0.03-0.004,0.062-0.007,0.092  c-0.004,0.051-0.009,0.101-0.012,0.154c0,0.002,0,0.005,0,0.007c0,0,0,0.001,0,0.002l-0.004,0.074  c-0.004,0.081-0.006,0.163-0.006,0.244c0,0.001,0,0.002,0,0.003c0,0,0,0.001,0,0.001c0,0.068,0.001,0.134,0.003,0.2  c0,0.014,0,0.028,0,0.042l0.001,0.013l0.001,0.027c0,0,0,0.001,0,0.001c0.003,0.082,0.009,0.165,0.016,0.247  c0,0.001,0,0.002,0,0.004c0.007,0.084,0.016,0.168,0.027,0.252c0,0,0,0.001,0,0.001l0,0.001l0,0c0,0.002,0,0.004,0,0.006  c0.006,0.047,0.015,0.096,0.022,0.144c-0.695-0.215-1.479-0.348-2.359-0.348c-0.27,0-0.488,0.218-0.488,0.488  s0.219,0.488,0.488,0.488c2.958,0,4.692,1.696,5.462,2.707c0.065,0.086,0.127,0.171,0.187,0.257c0.002,0.003,0.005,0.007,0.007,0.01  c0.006,0.008,0.011,0.016,0.017,0.023c0.047,0.068,0.091,0.136,0.135,0.204c0.025,0.039,0.049,0.078,0.073,0.117  c0.026,0.042,0.051,0.084,0.076,0.125c0.042,0.072,0.083,0.144,0.121,0.215c0.007,0.013,0.015,0.026,0.021,0.04  c0.102,0.192,0.191,0.382,0.268,0.567c0.004,0.011,0.008,0.021,0.012,0.031c0.033,0.082,0.065,0.164,0.094,0.244  c0.033,0.091,0.063,0.18,0.089,0.268l0.005,0.017l0.021,0.07c0.161,0.569,0.186,1.035,0.112,1.302  c-0.021,0.078-0.021,0.155-0.005,0.229c-0.008,0.013-0.016,0.026-0.024,0.039c-0.025,0.039-0.051,0.077-0.074,0.117  c-0.076,0.128-0.148,0.26-0.21,0.396c-0.949,2.082-0.027,4.546,2.054,5.496l2.766,1.261H18.277v-4.208  c0-0.161-0.008-0.321-0.023-0.479c-0.005-0.053-0.015-0.104-0.022-0.157c-0.013-0.104-0.026-0.209-0.045-0.312  c-0.012-0.061-0.029-0.121-0.042-0.181c-0.021-0.091-0.041-0.184-0.067-0.273c-0.019-0.063-0.042-0.125-0.063-0.188  c-0.028-0.084-0.055-0.169-0.087-0.251c-0.024-0.063-0.053-0.125-0.081-0.186c-0.035-0.079-0.068-0.159-0.107-0.235  c-0.031-0.062-0.065-0.121-0.098-0.181c-0.041-0.074-0.081-0.148-0.125-0.22c-0.036-0.059-0.076-0.116-0.114-0.173  c-0.047-0.069-0.093-0.139-0.143-0.206c-0.042-0.056-0.085-0.109-0.129-0.163c-0.052-0.065-0.105-0.129-0.161-0.192  c-0.046-0.052-0.094-0.102-0.143-0.151c-0.058-0.06-0.116-0.119-0.177-0.176c-0.051-0.048-0.103-0.094-0.155-0.139  c-0.063-0.055-0.126-0.108-0.192-0.16c-0.055-0.043-0.111-0.084-0.167-0.125c-0.068-0.049-0.137-0.097-0.207-0.143  c-0.058-0.038-0.117-0.075-0.177-0.11c-0.072-0.043-0.146-0.084-0.22-0.124c-0.062-0.033-0.124-0.064-0.187-0.095  c-0.077-0.037-0.154-0.071-0.232-0.104c-0.064-0.027-0.129-0.053-0.195-0.078c-0.081-0.03-0.162-0.057-0.245-0.083  c-0.066-0.021-0.133-0.042-0.201-0.06c-0.084-0.022-0.17-0.042-0.256-0.06c-0.069-0.015-0.137-0.03-0.207-0.042  c-0.029-0.005-0.057-0.013-0.085-0.017C12.788,40.374,13.252,37.262,15.158,35.82z M26.349,70.901H14.073  c-0.238,0-0.433-0.193-0.433-0.432c0-0.239,0.194-0.433,0.433-0.433h12.276c0.238,0,0.432,0.193,0.432,0.433  C26.781,70.708,26.587,70.901,26.349,70.901z M85.864,70.901H73.589c-0.239,0-0.433-0.193-0.433-0.432  c0-0.239,0.193-0.433,0.433-0.433h12.275c0.238,0,0.433,0.193,0.433,0.433C86.297,70.708,86.103,70.901,85.864,70.901z   M90.996,64.912c0,2.288-1.861,4.148-4.148,4.148c-0.013,0-0.023-0.001-0.035-0.002c-0.024-0.002-0.049-0.003-0.073-0.004h-0.014  h-0.015c-0.024,0.001-0.049,0.002-0.072,0.004c-0.012,0.001-0.023,0.002-0.035,0.002h-0.739H73.589h-47.24H14.073h-0.92  c-2.288,0-4.148-1.86-4.148-4.148V49.051c0-2.287,1.861-4.148,4.148-4.148c0.129,0,0.261,0.01,0.361,0.019  c2.124,0.184,3.788,1.998,3.788,4.13v5.185v7.017h65.398l0.054-12.838c0.308-1.985,2.024-3.512,4.095-3.512  c2.287,0,4.148,1.861,4.148,4.148V64.912z"></path></svg>