<svg xmlns="http://www.w3.org/2000/svg" xmlns:xlink="http://www.w3.org/1999/xlink" version="1.1" x="0px" y="0px" viewBox="0 0 30 30" xml:space="preserve">
	<g transform="translate(-570 -258)">
		<g xmlns="http://www.w3.org/2000/svg" xmlns:xlink="http://www.w3.org/1999/xlink">
			<path d="M597,263c-8,3-11.979-3-11.979-3H585h-0.021c0,0-3.979,6-11.979,3c0,0-4.693,16.084,12,25    C601.693,279.084,597,263,597,263z M585,285.711c-10.912-6.35-11.004-16.027-10.459-20.176c0.941,0.203,1.87,0.305,2.777,0.305    c3.615,0,6.17-1.586,7.682-2.923c1.512,1.337,4.066,2.923,7.682,2.923l0,0c0.908,0,1.836-0.102,2.778-0.305    C596.004,269.679,595.914,279.359,585,285.711z">
			</path>
			<path d="M585,264.215c-1.682,1.301-4.239,2.625-7.682,2.625c-0.621,0-1.254-0.045-1.893-0.133c-0.137,1.84-0.06,4.461,0.859,7.293    H585V264.215z">
			</path>
			<path d="M585,284.546c5.078-3.106,7.56-6.993,8.715-10.546H585V284.546z">
			</path>
		</g>
	</g>
</svg>
