<svg xmlns="http://www.w3.org/2000/svg" xmlns:xlink="http://www.w3.org/1999/xlink" version="1.1" x="0px" y="0px" viewBox="0 0 100 100" enable-background="new 0 0 100 100" xml:space="preserve"><path d="M50,60.9c-12.7,0-25.4,0-38.1,0c-0.8,0-0.8,0-0.8-0.8c0-5,0-9.9,0-14.9c0-1.8,0-1.4,1.5-1.4c0.4,0,0.8,0,1.2,0  c0.4,0,0.6-0.2,0.6-0.6c0-0.1,0-0.3,0-0.4c0-4.5,0-9,0-13.5c0-0.6,0.1-0.9,0.7-1.1c0.4-0.2,0.8-0.6,1-1.1c0.7-1.3,1-2.7,1.2-4.1  c0.1-1.5,0.2-3,0.3-4.4c0-0.3,0.1-0.5,0.5-0.5c0.6,0,1.3,0,1.9,0c0.3,0,0.5,0.1,0.5,0.4c0.1,0.9,0.1,0.9,1,0.9c19.1,0,38.2,0,57.3,0  c0.7,0,0.7,0,0.7-0.7c0-0.5,0.2-0.6,0.6-0.6c0.5,0,1,0,1.5,0c0.4,0,0.6,0.1,0.6,0.6c0,2.3,0.2,4.5,0.7,6.7c0.2,0.7,0.4,1.3,0.7,1.9  c0.3,0.6,0.7,1,1.3,1.1c0.1,0,0.3,0.3,0.3,0.5c0,4.7,0,9.4,0,14.1c0,0.8,0,0.8,0.8,0.8c0.7,0,1.4,0,2,0c0.5,0,0.7,0.1,0.7,0.6  c0,1.6,0,3.2,0,4.8c0,3.6,0,7.3,0,10.9c0,0.7,0,0.7-0.7,0.7C75.4,60.9,62.7,60.9,50,60.9z M65.6,28.6c0,0.1,0.1,0.2,0.1,0.3  c0.2,2,0.8,3.9,1.6,5.7c0.1,0.3,0.4,0.6,0.7,0.7c1.3,0.5,2.6,0.3,3.8-0.3c1.1-0.6,1.6-1.4,1.4-2.6c0-0.3-0.1-0.6-0.2-0.9  c-0.4-1.3-0.8-2.6-1.2-3.9c0-0.1,0-0.3,0-0.4c0,0,0.2,0,0.3,0c0.6,0.3,1.3,0.5,1.9,0.9c1.1,0.8,1.9,1.9,2.6,3.2  c1.2,2.2,1,4.3-0.6,6.3c-0.5,0.6-0.9,1.3-1.3,2.1c-0.6,1.2-1.2,2.4-1.2,3.8c0,0.4,0.2,0.6,0.6,0.6c0.8,0,1.7,0,2.5,0  c0.7,0,1.5,0,2.2,0c0.4,0,0.6-0.2,0.6-0.6c0-1.9,0-3.9,0-5.8c0-2.2,0-4.4,0-6.5c0-2,0-4.1,0-6.1c0-0.4-0.2-0.6-0.6-0.6  c-0.3,0-0.6,0-1,0c-18.9,0-37.8,0-56.8,0c-0.8,0-0.8,0-0.8,0.8c0,6,0,11.9,0,17.9c0,0.9,0,0.9,0.9,0.9c2.4,0,4.7,0,7.1,0  c1.1,0,2.1,0,3.2,0c0.4,0,0.6-0.1,0.6-0.6c0-1.5,0-3,0-4.6c0-0.2,0-0.4-0.1-0.5c-0.6-0.4-0.6-0.9-0.7-1.5c-0.1-0.7-0.2-1.4-0.3-2.1  c-0.2-0.7-0.6-1-1.3-0.8c-0.5,0.2-0.9,0.4-1.4,0.7c-1.5,1-2.8,2.4-3.9,3.8c-0.5,0.6-1.1,0.9-1.8,1c-0.2,0-0.3,0-0.5-0.1  c0-0.2,0-0.3,0.1-0.5c0.9-1.5,1.8-3,2.8-4.5c1.4-1.9,3.1-3.5,5.3-4.4c2.1-0.8,4.3-1.2,6.5-1.3c0.8,0,1.6-0.1,2.3,0.5  c1.3,1.2,2.8,1.3,4.4,0.6c0.3-0.1,0.7-0.3,1-0.3c1.1-0.1,2.3,0.2,2.4,1.6c0.1,1.2,0,2.4-0.6,3.5c-0.2,0.4-0.6,0.7-1.1,0.7  c-0.7,0.1-1.4,0-2-0.5c-0.4-0.3-0.9-0.7-1.3-0.9c-1.4-0.9-3.6,0.1-3.8,1.7c-0.1,0.6-0.1,1.3-0.2,1.9c0,0.2-0.2,0.5-0.4,0.6  c-0.3,0.2-0.4,0.4-0.4,0.7c0,1.4,0,2.9,0,4.3c0,0.7,0,0.7,0.7,0.7c1.6,0,3.1,0,4.7,0c2,0,4,0,6,0c0.7,0,0.8,0,0.8-0.8  c0-3.5-0.1-7,0-10.4c0.1-2.3,1.2-4.1,3.3-5.1c3.2-1.5,7,0.4,7.6,4c0.2,1.2,0.2,2.5,0.2,3.7c0,2.6,0,5.2,0,7.8c0,0.8,0,0.8,0.8,0.8  c1.4,0,2.7,0,4.1,0c0.6,0,1.2,0,1.7,0c0.3,0,0.5-0.1,0.6-0.4c0.1-0.9,0.1-1.8-0.6-2.5c-0.6-0.7-1.2-1.3-1.9-1.9  c-0.9-0.8-1.6-1.8-1.9-3c-0.5-2.7,0.3-5,1.8-7.2C65.3,28.8,65.5,28.7,65.6,28.6z M58.6,38.9C58.6,38.9,58.6,38.9,58.6,38.9  c0-1.5,0-3,0-4.4c0-0.8-0.4-1.3-1.2-1.3c-0.7,0-1.2,0.5-1.2,1.3c0,1.3,0,2.7,0,4c0,1.6,0,3.2,0,4.9c0,0.4,0.1,0.6,0.5,0.6  c0.4,0,0.9,0,1.3,0c0.5,0,0.6-0.1,0.6-0.6C58.6,41.8,58.6,40.3,58.6,38.9z M51.6,38.7c0,1.5,0,3,0,4.5c0,0.4,0.1,0.6,0.5,0.5  c0.4,0,0.8,0,1.2,0c0.5,0,0.6-0.1,0.6-0.6c0-3,0-6,0-8.9c0-0.8-0.4-1.3-1.1-1.3c-0.7,0-1.1,0.4-1.1,1.2  C51.6,35.8,51.6,37.3,51.6,38.7z M17.5,50.7c-0.9,0-1.7,0.8-1.8,1.8c0,1,0.8,1.9,1.8,1.9c1,0,1.8-0.8,1.9-1.9  C19.5,51.5,18.7,50.7,17.5,50.7z M84.2,52.5c0-1.1-0.7-1.9-1.7-1.9c-1,0-1.8,0.8-1.7,1.9c0,1.1,0.7,1.9,1.7,1.9  C83.5,54.3,84.2,53.6,84.2,52.5z"></path><path d="M50,62.7c12.7,0,25.3,0,38,0c0.9,0,0.9,0,0.9,0.9c0,4.8,0,9.6,0,14.4c0,0.8,0,0.8-0.8,0.8c-25.4,0-50.7,0-76.1,0  c-0.8,0-0.8,0-0.8-0.8c0-4.9,0-9.8,0-14.7c0-0.7,0-0.7,0.8-0.7c2.7,0,5.5,0,8.2,0C30.1,62.7,40.1,62.7,50,62.7  C50,62.7,50,62.7,50,62.7z M19.4,70.9c0-1.1-0.8-1.9-1.8-1.9c-1,0-1.9,0.9-1.9,1.9c0,1,0.9,1.9,1.8,1.9C18.6,72.8,19.4,72,19.4,70.9  z M80.8,70.8c0,1.1,0.7,1.9,1.7,1.9c1,0,1.7-0.7,1.7-1.8c0-1.2-0.6-1.9-1.7-1.9C81.4,69,80.8,69.6,80.8,70.8z"></path></svg>